<?xml version="1.0" standalone="no"?>
<!DOCTYPE svg PUBLIC "-//W3C//DTD SVG 20010904//EN"
 "http://www.w3.org/TR/2001/REC-SVG-20010904/DTD/svg10.dtd">
<svg version="1.0" xmlns="http://www.w3.org/2000/svg"
 width="600.000000pt" height="600.000000pt" viewBox="0 0 600.000000 600.000000"
 preserveAspectRatio="xMidYMid meet">
<metadata>
Created by potrace 1.16, written by Peter Selinger 2001-2019
</metadata>
<g transform="translate(0.000000,600.000000) scale(0.100000,-0.100000)"
fill="#000000" stroke="none">
<path d="M1396 5979 c-78 -19 -133 -69 -162 -151 -21 -60 -21 -782 1 -854 59
-197 325 -225 417 -44 l28 55 3 410 2 410 -30 54 c-36 65 -89 106 -156 120
-56 12 -50 12 -103 0z"/>
<path d="M4462 5971 c-62 -21 -104 -59 -131 -115 -18 -38 -20 -71 -23 -451 -2
-321 0 -417 10 -440 27 -62 65 -105 115 -130 122 -61 263 -10 320 115 19 43
20 64 21 430 1 428 -1 450 -61 520 -67 78 -159 104 -251 71z"/>
<path d="M820 5563 c-50 -8 -156 -48 -210 -79 -145 -84 -256 -227 -308 -397
-13 -44 -16 -134 -19 -552 -4 -499 -4 -501 17 -528 33 -42 71 -36 207 34 65
33 123 65 128 70 6 6 12 169 15 427 5 401 6 419 27 464 42 91 147 178 215 178
14 0 38 10 52 21 l28 22 -8 166 c-4 104 -11 169 -18 173 -11 8 -82 8 -126 1z"/>
<path d="M1969 5551 c-24 -19 -24 -22 -21 -173 3 -140 5 -154 24 -170 19 -17
83 -18 1028 -18 963 0 1008 1 1023 18 14 16 17 44 17 180 0 149 -1 162 -19
172 -13 7 -351 10 -1024 10 -975 0 -1005 -1 -1028 -19z"/>
<path d="M5048 5559 c-16 -9 -18 -28 -18 -170 0 -91 4 -169 10 -180 7 -11 21
-19 38 -19 73 0 191 -89 232 -175 33 -69 40 -158 40 -531 l0 -361 23 -20 c21
-19 124 -78 199 -115 52 -25 90 -23 119 8 l24 26 3 450 c3 482 -3 559 -49 683
-30 79 -110 195 -177 255 -124 110 -369 193 -444 149z"/>
<path d="M2940 4870 c-27 -8 -118 -51 -375 -175 -88 -43 -209 -101 -270 -130
-60 -29 -195 -94 -300 -145 -104 -50 -206 -99 -225 -108 -19 -8 -199 -94 -400
-190 -201 -95 -415 -196 -477 -224 -105 -47 -114 -53 -133 -94 -21 -41 -21
-44 -4 -79 20 -43 24 -45 379 -205 243 -110 472 -216 1330 -615 187 -87 374
-173 415 -191 84 -38 145 -43 205 -19 39 17 409 189 590 275 61 29 196 92 300
140 105 48 240 111 300 140 61 28 175 81 255 117 154 69 564 259 640 296 32
15 51 33 64 61 19 38 19 39 -2 82 -18 37 -31 47 -99 80 -43 20 -159 75 -258
121 -99 47 -288 137 -420 201 -132 63 -314 150 -405 192 -91 43 -320 153 -510
245 -190 92 -379 183 -420 201 -75 34 -128 41 -180 24z m152 -772 c48 -23 86
-80 94 -140 13 -96 -63 -186 -165 -196 -63 -6 -114 12 -162 55 l-39 35 -264
-127 c-145 -70 -271 -125 -281 -124 -24 5 -40 32 -32 53 4 10 62 43 129 74 67
31 189 89 271 127 l149 71 17 52 c44 128 165 179 283 120z"/>
<path d="M309 3511 l-29 -29 0 -1432 c0 -1597 -4 -1513 70 -1665 93 -191 250
-317 455 -365 84 -20 122 -20 2203 -20 2063 0 2119 1 2192 20 206 53 354 174
450 365 73 145 70 71 70 1640 0 771 -3 1416 -6 1433 -10 50 -40 75 -85 69 -38
-5 -229 -96 -261 -124 -16 -15 -18 -101 -20 -1377 -3 -1356 -3 -1361 -24
-1412 -49 -119 -138 -202 -241 -224 -32 -7 -739 -9 -2113 -8 l-2065 3 -52 24
c-63 28 -145 112 -176 178 l-22 48 -5 1376 c-4 1103 -8 1379 -18 1391 -18 22
-249 138 -274 138 -11 0 -33 -13 -49 -29z"/>
<path d="M992 3248 c-5 -8 -12 -128 -15 -290 -6 -346 -22 -318 184 -318 99 0
149 4 157 12 9 9 12 73 12 228 0 212 0 217 -22 237 -20 18 -281 143 -299 143
-3 0 -11 -6 -17 -12z"/>
<path d="M4900 3222 c-30 -15 -90 -43 -133 -61 -43 -19 -82 -42 -87 -52 -6
-10 -10 -112 -10 -228 0 -177 2 -212 16 -225 12 -13 41 -16 155 -16 195 0 180
-27 178 308 0 147 -5 275 -10 284 -13 25 -44 22 -109 -10z"/>
<path d="M1737 2933 c-4 -3 -7 -157 -7 -342 0 -328 1 -337 24 -392 57 -139
221 -293 466 -437 67 -39 226 -105 345 -142 387 -121 727 -92 1110 95 247 120
432 262 527 406 66 100 68 112 68 479 0 211 -4 331 -10 335 -6 4 -34 -5 -63
-18 -28 -14 -162 -76 -297 -139 -348 -163 -335 -157 -562 -262 -273 -126 -293
-132 -377 -119 -66 10 -171 57 -997 444 -227 106 -217 102 -227 92z"/>
<path d="M1014 2290 c-12 -5 -24 -13 -27 -18 -4 -4 -7 -131 -8 -281 -2 -244 0
-274 15 -289 14 -14 39 -17 160 -17 106 0 147 4 159 14 15 12 17 45 17 287 0
340 14 314 -167 313 -71 0 -138 -4 -149 -9z"/>
<path d="M4665 2293 c-120 -5 -115 7 -115 -289 0 -267 7 -308 53 -319 13 -4
104 -5 201 -3 173 3 178 4 197 27 18 21 19 42 19 281 0 326 11 305 -157 306
-65 0 -154 -1 -198 -3z"/>
<path d="M1030 1323 c-8 -3 -23 -12 -32 -21 -16 -14 -18 -40 -18 -282 0 -242
2 -268 18 -283 14 -13 51 -16 211 -18 l193 -3 20 24 c20 24 20 35 15 280 -3
140 -9 263 -13 273 -3 10 -18 23 -31 28 -26 10 -337 11 -363 2z"/>
<path d="M1989 1311 c-24 -19 -24 -20 -27 -267 -2 -254 4 -306 36 -319 9 -3
101 -6 205 -6 164 0 192 2 208 17 18 16 19 35 19 285 l0 268 -26 20 c-25 20
-40 21 -209 21 -165 0 -185 -2 -206 -19z"/>
<path d="M3592 1320 c-12 -5 -27 -21 -32 -35 -11 -28 -14 -503 -4 -530 15 -38
52 -44 245 -39 l184 4 24 27 24 27 -6 256 -6 255 -26 23 c-25 21 -33 22 -203
21 -97 0 -187 -4 -200 -9z"/>
<path d="M4575 1306 l-25 -25 0 -255 c0 -140 3 -262 6 -271 15 -38 52 -44 248
-38 174 6 188 8 202 27 11 17 14 69 14 277 0 238 -1 259 -19 280 -19 23 -23
24 -210 27 l-191 3 -25 -25z"/>
<path d="M2782 1144 c-21 -15 -22 -20 -22 -203 0 -167 2 -190 18 -204 15 -13
50 -16 217 -18 255 -2 235 -20 235 216 0 159 -2 174 -21 199 l-20 26 -193 0
c-157 0 -196 -3 -214 -16z"/>
</g>
</svg>
